<?xml version="1.0" encoding="utf-8"?>
<!-- Generator: Adobe Illustrator 25.4.1, SVG Export Plug-In . SVG Version: 6.00 Build 0)  -->
<svg version="1.1" id="레이어_1" xmlns="http://www.w3.org/2000/svg" xmlns:xlink="http://www.w3.org/1999/xlink" x="0px"
	 y="0px" viewBox="0 0 24 24" style="enable-background:new 0 0 24 24;" xml:space="preserve">
<style type="text/css">
	.st0{fill:none;stroke:#000000;stroke-width:1.5;stroke-linecap:round;stroke-linejoin:round;}
	.st1{fill:none;stroke:#03A64A;stroke-width:2;stroke-linecap:round;stroke-linejoin:round;}
</style>
<path class="st0" d="M2,3h6c2.2,0,4,1.8,4,4v14c0-1.7-1.3-3-3-3H2V3z"/>
<path class="st0" d="M22,3h-6c-2.2,0-4,1.8-4,4v14c0-1.7,1.3-3,3-3h7V3z"/>
<line class="st1" x1="15" y1="11.5" x2="19" y2="11.5"/>
<line class="st1" x1="15" y1="8.5" x2="19" y2="8.5"/>
<line class="st1" x1="5" y1="8.5" x2="9" y2="8.5"/>
<line class="st1" x1="5" y1="11.5" x2="9" y2="11.5"/>
<line class="st1" x1="5" y1="14.5" x2="9" y2="14.5"/>
<line class="st1" x1="15" y1="14.5" x2="19" y2="14.5"/>
</svg>
